# xmcd
#
# Track frame offsets: 
#        150
#        15103
#        30355
#        47979
#        61692
#        79556
#        92869
#        105200
#        118127
#        130472
#        149862
#
# Disc length: 2345 seconds
#
# Revision: 0
# Processed by: cddbd v1.5.2PL0 Copyright (c) Steve Scherf et al.
# Submitted via: ExactAudioCopy v1.1
#
DISCID=8809270b
DTITLE=Ladybirds - 2016 Ladybirds promo
DYEAR=2016
DGENRE=
TTITLE0=Say Say Say
TTITLE1=Jako mala
TTITLE2=Salsa
TTITLE3=Cerny andel
TTITLE4=Get Lucky
TTITLE5=Na druhy strane
TTITLE6=Boky jako skrin
TTITLE7=Labyrint
TTITLE8=Kulhava opera
TTITLE9=Demon zoufalstvi
TTITLE10=ABBA mix
EXTD=
EXTT0=
EXTT1=
EXTT2=
EXTT3=
EXTT4=
EXTT5=
EXTT6=
EXTT7=
EXTT8=
EXTT9=
EXTT10=
PLAYORDER=
